Coordinates
version=1
nRows=6
nColumns=63
inDegrees=yes

Units are S.I. units (second, meters, Newtons, ...)
If the header above contains a line with 'inDegrees', this indicates whether rotational values are in degrees (yes) or radians (no).

endheader
time	pelvis_tilt	pelvis_list	pelvis_rotation	pelvis_tx	pelvis_ty	pelvis_tz	hip_flexion_r	hip_adduction_r	hip_rotation_r	knee_angle_r	knee_angle_r_beta	ankle_angle_r	subtalar_angle_r	mtp_angle_r	hip_flexion_l	hip_adduction_l	hip_rotation_l	knee_angle_l	knee_angle_l_beta	ankle_angle_l	subtalar_angle_l	mtp_angle_l	L5_S1_Flex_Ext	L5_S1_Lat_Bending	L5_S1_axial_rotation	L4_L5_Flex_Ext	L4_L5_Lat_Bending	L4_L5_axial_rotation	L3_L4_Flex_Ext	L3_L4_Lat_Bending	L3_L4_axial_rotation	L2_L3_Flex_Ext	L2_L3_Lat_Bending	L2_L3_axial_rotation	L1_L2_Flex_Ext	L1_L2_Lat_Bending	L1_L2_axial_rotation	L1_T12_Flex_Ext	L1_T12_Lat_Bending	L1_T12_axial_rotation	Abs_r3	Abs_r2	Abs_r1	Abs_t1	Abs_t2	neck_flexion	neck_bending	neck_rotation	arm_flex_r	arm_add_r	arm_rot_r	elbow_flex_r	pro_sup_r	wrist_flex_r	wrist_dev_r	arm_flex_l	arm_add_l	arm_rot_l	elbow_flex_l	pro_sup_l	wrist_flex_l	wrist_dev_l
      3.90000000	      4.12171430	      0.14233665	     -4.81495796	      1.04382218	      0.98331334	      0.40744722	     -9.68251722	      2.26793612	     -4.63287540	      6.98805750	      0.12196461	     14.20552216	      1.36122855	      0.00000000	     26.01499948	     -2.40567576	     -6.29599213	     59.19150447	      1.03308664	     14.24120154	    -16.09419545	      0.00000000	     -0.00276618	      0.07285007	      0.88425966	     -0.00513707	      0.09689060	      0.93952589	     -0.00454455	      0.17712767	      0.93952589	     -0.00316146	      0.17712767	      0.77372720	     -0.00256867	      0.14855587	      0.71846098	     -0.00158059	      0.11284476	      0.66319475	     -0.01975853	      0.82409459	      4.91798697	      0.00000000	      0.00000000	     -0.00000000	      0.00000000	     -0.00000000	     10.82068005	    -16.95390682	     19.75361146	     32.17122293	     58.41954106	      0.00000000	      5.00000014	    -17.59897414	     -9.86437054	    -10.15325890	     28.81418326	     51.97554461	      0.00000000	      5.00000014
      3.93333333	      3.48042945	      0.49542326	     -6.34865087	      1.07813573	      0.97960114	      0.41358597	    -11.45852964	      1.80429612	     -4.50034731	      6.34672497	      0.11077125	     15.49221876	      1.42995347	      0.00000000	     27.87046724	     -2.28386268	     -6.72463075	     48.69338838	      0.84985995	     12.49531321	    -15.24641859	      0.00000000	     -0.00054711	      0.03457627	      1.14065084	     -0.00101605	      0.04598644	      1.21194152	     -0.00089885	      0.08406875	      1.21194152	     -0.00062530	      0.08406875	      0.99806949	     -0.00050805	      0.07050794	      0.92677881	     -0.00031262	      0.05355865	      0.85548813	     -0.00390798	      0.39113371	      6.34395779	      0.00000000	      0.00000000	     -0.00000000	      0.00000000	     -0.00000000	     14.64970741	    -17.14004975	     20.46276814	     34.33493083	     58.32009996	      0.00000000	      5.00000014	    -17.99406929	    -10.35210136	    -11.70179737	     27.43830506	     51.58604457	      0.00000000	      5.00000014
      3.96666667	      2.99456624	      0.54622653	     -8.21810162	      1.11485256	      0.97345578	      0.42046020	    -13.62317895	      1.43923935	     -4.26266890	      5.64949332	      0.09860226	     16.82664708	      2.58554151	      0.00000000	     28.08914793	     -3.14554874	     -8.09713698	     37.70270399	      0.65803632	      8.55247517	    -14.41446309	      0.00000000	      0.00003093	      0.01410638	      1.17455137	      0.00005744	      0.01876148	      1.24796083	      0.00005081	      0.03429825	      1.24796083	      0.00003535	      0.03429825	      1.02773245	      0.00002872	      0.02876573	      0.95432299	      0.00001767	      0.02185078	      0.88091353	      0.00022092	      0.15957418	      6.53250234	      0.00000000	      0.00000000	     -0.00000000	      0.00000000	     -0.00000000	     19.15531531	    -16.87857917	     25.09007143	     35.91725671	     56.94255660	      0.00000000	      5.00000014	    -19.12024904	     -8.61117545	    -22.75539167	     27.25825973	     47.95664972	      0.00000000	      5.00000014
      4.00000000	      2.69840139	      0.32765306	     -9.89470302	      1.15578632	      0.96555672	      0.42577642	    -16.22891864	      1.12496508	     -4.08829114	      5.21670985	      0.09104876	     17.69867127	      3.80738747	      0.00000000	     26.98258394	     -4.52368376	    -10.95349985	     26.90572168	      0.46959343	      4.31216110	    -10.98840672	      0.00000000	      0.00018972	      0.01259794	      1.13493717	      0.00035233	      0.01675525	      1.20587074	      0.00031169	      0.03063062	      1.20587074	      0.00021683	      0.03063062	      0.99307002	      0.00017618	      0.02568971	      0.92213645	      0.00010841	      0.01951420	      0.85120287	      0.00135517	      0.14251037	      6.31218004	      0.00000000	      0.00000000	     -0.00000000	      0.00000000	     -0.00000000	     21.60491625	    -15.43112759	     24.47752976	     38.47845604	     54.75912151	      0.00000000	      5.00000014	    -20.48541553	     -7.95589621	    -27.37892647	     27.08176077	     45.73715240	      0.00000000	      5.00000014
      4.03333333	      2.65234759	     -0.23910996	    -11.25437042	      1.20106449	      0.95678509	      0.42810316	    -18.98438036	      0.72569003	     -5.44755739	      5.83253071	      0.10179686	     18.53556334	      6.98100983	      0.00000000	     25.36855945	     -5.96330055	    -15.26426417	     18.17050395	      0.31713512	      0.33449345	     -5.12168386	      0.00000000	      0.00404053	      0.04322240	      1.05460215	      0.00750367	      0.05748579	      1.12051478	      0.00663819	      0.10509093	      1.12051478	      0.00461792	      0.10509093	      0.92277688	      0.00375204	      0.08813911	      0.85686425	      0.00230876	      0.06695149	      0.79095161	      0.02886111	      0.48894038	      5.86538077	      0.00000000	      0.00000000	     -0.00000000	      0.00000000	     -0.00000000	     22.86002949	    -14.23492989	     27.38708173	     41.37510858	     19.27839302	      0.00000000	      5.00000014	    -22.45764246	     -7.86971866	    -24.73872524	     27.75645867	     24.59554769	      0.00000000	      5.00000014
      4.06666667	      2.89656807	     -0.88365000	    -12.18243826	      1.24970921	      0.94843575	      0.42793836	    -21.39340602	      0.13885725	     -5.65229401	      8.24237070	      0.14385651	     18.78902606	      7.66959183	      0.00000000	     24.00239981	     -7.00952086	    -19.72504542	     13.17670722	      0.22997693	     -2.78727727	      0.87556065	      0.00000000	      0.00489005	      0.07723172	      1.00659605	      0.00908130	      0.10271819	      1.06950830	      0.00803386	      0.18778120	      1.06950830	      0.00558883	      0.18778120	      0.88077154	      0.00454090	      0.15749092	      0.81785929	      0.00279417	      0.11963193	      0.75494704	      0.03492911	      0.87366066	      5.59838524	      0.00000000	      0.00000000	     -0.00000000	      0.00000000	     -0.00000000	     22.12852884	    -12.70440276	     23.89434312	     43.99409505	     18.77151431	      0.00000000	      5.00000014	    -24.56044581	     -8.02863665	    -22.81841022	     29.27585339	     24.71510909	      0.00000000	      5.00000014
